<svg xmlns="http://www.w3.org/2000/svg" width="240" height="72" viewBox="0 0 240 72" role="img" aria-labelledby="title">
  <title id="title">Golden One</title>
  <g transform="translate(6 8)">
    <circle cx="28" cy="28" r="27" fill="#17181a"/>
    <circle cx="28" cy="28" r="21.5" fill="none" stroke="#c7a45c" stroke-width="1.5"/>
    <path d="M37 19.5c-2.1-3-5.2-4.5-9-4.5-7.3 0-12.2 5.2-12.2 13s4.9 13 12.4 13c3.5 0 6.5-1 8.9-3.1v-7.2h-9.4v-5.6h15.6v15.8c-4 4-9.2 6.1-15.4 6.1-11 0-18.7-7.7-18.7-19S17 9 28.1 9c6.2 0 11.3 2.2 15.1 6.6L37 19.5Z" fill="#fff"/>
    <path d="m43.5 9.5 4 2.2-27 34.8-4-2.2z" fill="#b4232d"/>
  </g>
  <text x="72" y="34" font-family="Arial, Helvetica, sans-serif" font-size="23" font-weight="800" fill="#17181a">GOLDEN ONE</text>
  <text x="73" y="52" font-family="Arial, Helvetica, sans-serif" font-size="9.5" font-weight="700" letter-spacing="0" fill="#6b6d72">CUSTOM METAL GIFTS</text>
</svg>
