<svg xmlns="http://www.w3.org/2000/svg" width="512" height="512" viewBox="0 0 64 64" role="img" aria-labelledby="title">
  <title id="title">Golden One</title>
  <rect width="64" height="64" rx="8" fill="#17181a"/>
  <circle cx="32" cy="32" r="25" fill="none" stroke="#c7a45c" stroke-width="2"/>
  <path d="M41.8 23.8C39.7 20.7 36.4 19 32.2 19 24.1 19 18.7 24.6 18.7 32s5.4 13 13.7 13c3.9 0 7.2-1.1 9.8-3.4v-7.3H31.8v-5.5h16.4v15.3C44 48.5 38.4 51 31.9 51 20.3 51 12 43.2 12 32s8.3-19 20-19c6.8 0 12.4 2.4 16.3 7.1l-6.5 3.7Z" fill="#fff"/>
  <path d="m46.8 12 4.2 2.4-30.8 38-4.2-2.4z" fill="#b4232d"/>
</svg>
